<svg width="11" height="11" viewBox="0 0 11 11" fill="none" xmlns="http://www.w3.org/2000/svg"><path fill-rule="evenodd" clip-rule="evenodd" d="M10.7589 3.55723C10.6752 3.35482 10.4781 3.22276 10.2599 3.22276H7.35361L5.88318 0.274799C5.70012 -0.0915996 5.10018 -0.0915996 4.91712 0.274799L3.44615 3.22276H0.539864C0.321703 3.22276 0.124603 3.35482 0.0409023 3.55723C-0.0422579 3.7591 0.00364222 3.99236 0.158083 4.14661L2.63345 6.62751L1.64093 10.1102C1.57883 10.3283 1.65875 10.5621 1.84181 10.6958C2.02487 10.83 2.27165 10.8349 2.45957 10.7088L5.39988 8.74417L8.34019 10.7088C8.43145 10.7694 8.53567 10.7997 8.63989 10.7997C8.75167 10.7997 8.86345 10.765 8.95849 10.6958C9.14101 10.5621 9.22147 10.3283 9.15937 10.1102L8.16631 6.62751L10.6417 4.14661C10.7961 3.99236 10.8426 3.7591 10.7589 3.55723Z" stroke="white"/></svg>