<svg width="27" height="26" viewBox="0 0 27 26" fill="none" xmlns="http://www.w3.org/2000/svg">
<path d="M25.3102 9.34C25.9902 9.34 26.3302 9.68 26.3302 10.36V15.58C26.3302 16.26 25.9902 16.6 25.3102 16.6H17.4502C17.2102 16.6 17.0902 16.72 17.0902 16.96V24.7C17.0902 25.38 16.7502 25.72 16.0702 25.72H10.9102C10.2302 25.72 9.89016 25.38 9.89016 24.7V16.96C9.89016 16.72 9.77016 16.6 9.53016 16.6H1.67016C0.990156 16.6 0.650156 16.26 0.650156 15.58V10.36C0.650156 9.68 0.990156 9.34 1.67016 9.34H9.53016C9.77016 9.34 9.89016 9.22 9.89016 8.98V1.06C9.89016 0.379998 10.2302 0.0399981 10.9102 0.0399981H16.0702C16.7502 0.0399981 17.0902 0.379998 17.0902 1.06V8.98C17.0902 9.22 17.2102 9.34 17.4502 9.34H25.3102Z" fill="#FFAFA4"/>
</svg>
