<svg width="319" height="319" viewBox="0 0 319 319" fill="none" xmlns="http://www.w3.org/2000/svg">
<path d="M188.729 174.6C188.729 178.533 187.663 182.1 185.529 185.3C183.463 188.433 180.363 190.967 176.229 192.9C172.163 194.767 167.263 195.7 161.529 195.7V203.7H156.829V195.5C149.296 194.833 143.163 192.567 138.429 188.7C133.696 184.833 131.096 179.6 130.629 173H151.529C151.796 176.733 153.563 179.133 156.829 180.2V167.2C155.963 167 155.196 166.767 154.529 166.5C149.596 165.1 145.496 163.7 142.229 162.3C139.029 160.833 136.263 158.633 133.929 155.7C131.596 152.767 130.429 148.9 130.429 144.1C130.429 139.833 131.596 136.167 133.929 133.1C136.263 129.967 139.429 127.567 143.429 125.9C147.429 124.233 151.896 123.3 156.829 123.1V115H161.529V123.2C169.329 123.733 175.463 125.9 179.929 129.7C184.463 133.433 186.963 138.533 187.429 145H166.329C165.929 141.6 164.329 139.433 161.529 138.5V151.3C163.129 151.833 164.329 152.2 165.129 152.4C170.063 153.933 174.096 155.433 177.229 156.9C180.363 158.367 183.063 160.533 185.329 163.4C187.596 166.267 188.729 170 188.729 174.6ZM151.529 143.2C151.529 145.733 153.296 147.833 156.829 149.5V138.1C153.296 138.433 151.529 140.133 151.529 143.2ZM161.529 180.8C163.396 180.667 164.896 180.1 166.029 179.1C167.163 178.033 167.729 176.667 167.729 175C167.729 173.6 167.196 172.4 166.129 171.4C165.063 170.4 163.529 169.533 161.529 168.8V180.8Z" fill="white"/>
<path d="M139.911 62.2794C138.395 54.7177 143.301 47.2667 150.992 46.6941C169.213 45.3374 187.566 48.4155 204.448 55.7576C225.617 64.9637 243.458 80.4322 255.572 100.082C267.686 119.732 273.492 142.621 272.207 165.669C270.923 188.717 262.611 210.819 248.389 229.002C234.167 247.184 214.717 260.575 192.657 267.372C170.596 274.17 146.983 274.048 124.994 267.023C103.005 259.998 83.6951 246.407 69.6616 228.079C58.4697 213.461 51.0621 196.39 47.9905 178.379C46.6939 170.777 52.7439 164.22 60.4482 163.871C68.1525 163.521 74.5665 169.53 76.1703 177.073C78.7873 189.382 84.1158 201.017 91.8363 211.1C102.401 224.899 116.939 235.13 133.493 240.419C150.048 245.708 167.825 245.8 184.433 240.682C201.041 235.565 215.684 225.484 226.391 211.795C237.098 198.106 243.355 181.467 244.322 164.115C245.289 146.763 240.919 129.532 231.799 114.738C222.679 99.945 209.247 88.2996 193.31 81.3687C181.664 76.304 169.089 73.9344 156.512 74.3589C148.804 74.6191 141.427 69.841 139.911 62.2794Z" fill="url(#paint0_angular)"/>
<defs>
<radialGradient id="paint0_angular" cx="0" cy="0" r="1" gradientUnits="userSpaceOnUse" gradientTransform="translate(159.382 159.382) rotate(-99.1258) scale(129.727)">
    <stop offset="0.97" stop-color="white" stop-opacity="0.61"/>
    <stop offset="1" stop-color="white"/>
</radialGradient>
</defs>
</svg>
