<svg width="414" height="578" viewBox="0 0 414 578" fill="none" xmlns="http://www.w3.org/2000/svg">
<g filter="url(#filter0_d)">
<rect x="337.387" y="32.7237" width="35" height="500.296" rx="2" transform="rotate(25 337.387 32.7237)" fill="#C05AFF"/>
<path d="M328.604 311.218C306.533 227.645 121.756 359.145 113.117 273.222L85.8218 524.755L267.353 556.763L328.604 311.218Z" fill="#FFCEA0"/>
<path fill-rule="evenodd" clip-rule="evenodd" d="M132.423 133.838C125.98 132.702 119.836 137.004 118.7 143.447C117.775 148.689 120.45 153.733 124.949 156.043L89.95 525.493L90.4558 525.541L267.503 556.76L267.994 556.887L361.465 197.748C366.483 197.115 370.722 193.29 371.646 188.049C372.782 181.605 368.48 175.461 362.037 174.325L132.423 133.838ZM360.41 197.833C359.593 197.861 358.76 197.806 357.922 197.658L128.309 157.171C127.471 157.023 126.67 156.791 125.912 156.484L91.0365 524.628L267.269 555.703L360.41 197.833Z" fill="#F68080"/>
<path d="M124.949 156.043L129.927 156.515C130.12 154.479 129.053 152.53 127.233 151.596L124.949 156.043ZM89.95 525.493L84.9723 525.022C84.8473 526.342 85.2518 527.658 86.0969 528.68C86.9419 529.702 88.1584 530.346 89.4786 530.471L89.95 525.493ZM90.4558 525.541L91.324 520.617C91.1925 520.594 91.0602 520.576 90.9272 520.564L90.4558 525.541ZM267.503 556.76L268.763 551.921C268.634 551.887 268.503 551.859 268.372 551.836L267.503 556.76ZM267.994 556.887L266.735 561.726C268.018 562.06 269.382 561.871 270.525 561.199C271.669 560.528 272.499 559.43 272.833 558.147L267.994 556.887ZM361.465 197.748L360.84 192.787C358.81 193.043 357.142 194.509 356.626 196.488L361.465 197.748ZM360.41 197.833L365.248 199.092C365.646 197.564 365.299 195.937 364.311 194.705C363.323 193.473 361.811 192.78 360.233 192.836L360.41 197.833ZM125.912 156.484L127.787 151.849C126.323 151.257 124.665 151.391 123.316 152.211C121.966 153.031 121.083 154.44 120.934 156.013L125.912 156.484ZM91.0365 524.628L86.0588 524.157C85.813 526.751 87.6015 529.1 90.1682 529.552L91.0365 524.628ZM267.269 555.703L266.401 560.627C268.968 561.079 271.452 559.485 272.108 556.962L267.269 555.703ZM123.624 144.315C124.28 140.592 127.831 138.105 131.555 138.762L133.291 128.914C124.129 127.298 115.391 133.416 113.775 142.579L123.624 144.315ZM127.233 151.596C124.629 150.258 123.091 147.337 123.624 144.315L113.775 142.579C112.46 150.04 116.271 157.207 122.665 160.491L127.233 151.596ZM119.971 155.572L84.9723 525.022L94.9277 525.965L129.927 156.515L119.971 155.572ZM89.4786 530.471L89.9843 530.519L90.9272 520.564L90.4215 520.516L89.4786 530.471ZM89.5875 530.465L266.635 561.684L268.372 551.836L91.324 520.617L89.5875 530.465ZM266.244 561.598L266.735 561.726L269.254 552.049L268.763 551.921L266.244 561.598ZM272.833 558.147L366.304 199.007L356.626 196.488L263.155 555.628L272.833 558.147ZM366.722 187.18C366.189 190.202 363.744 192.421 360.84 192.787L362.09 202.708C369.222 201.809 375.254 196.378 376.57 188.917L366.722 187.18ZM361.168 179.249C364.892 179.906 367.379 183.457 366.722 187.18L376.57 188.917C378.186 179.754 372.068 171.017 362.905 169.401L361.168 179.249ZM131.555 138.762L361.168 179.249L362.905 169.401L133.291 128.914L131.555 138.762ZM360.233 192.836C359.764 192.852 359.281 192.82 358.791 192.734L357.054 202.582C358.239 202.791 359.421 202.871 360.586 202.829L360.233 192.836ZM358.791 192.734L129.177 152.247L127.441 162.095L357.054 202.582L358.791 192.734ZM129.177 152.247C128.686 152.16 128.222 152.025 127.787 151.849L124.037 161.119C125.117 161.556 126.256 161.886 127.441 162.095L129.177 152.247ZM96.0142 525.1L130.89 156.956L120.934 156.013L86.0588 524.157L96.0142 525.1ZM268.137 550.779L91.9047 519.704L90.1682 529.552L266.401 560.627L268.137 550.779ZM355.571 196.573L262.43 554.443L272.108 556.962L365.248 199.092L355.571 196.573Z" fill="#331C00"/>
<ellipse rx="19.4325" ry="19.4785" transform="matrix(-0.996195 -0.0871557 -0.0871557 0.996195 157.696 365.792)" fill="black"/>
<ellipse rx="19.4325" ry="19.4785" transform="matrix(-0.996195 -0.0871557 -0.0871557 0.996195 250.617 373.921)" fill="black"/>
<ellipse rx="19.4325" ry="11.6871" transform="matrix(-0.996195 -0.0871557 -0.0871557 0.996195 134.603 406.788)" fill="#FFAFA4"/>
<ellipse rx="19.4325" ry="11.6871" transform="matrix(-0.996195 -0.0871557 -0.0871557 0.996195 266.241 418.304)" fill="#FFAFA4"/>
<path d="M175.538 410.369C170.036 409.888 165.104 413.975 165.445 419.487C165.63 422.475 166.017 425.424 166.605 428.294C167.841 434.332 169.94 439.905 172.781 444.693C175.623 449.48 179.151 453.39 183.166 456.197C187.18 459.005 191.602 460.656 196.177 461.057C200.753 461.457 205.394 460.599 209.835 458.531C214.276 456.463 218.43 453.225 222.06 449.004C225.69 444.782 228.724 439.659 230.99 433.927C232.067 431.202 232.961 428.366 233.661 425.455C234.954 420.086 230.807 415.204 225.305 414.723L200.422 412.546L175.538 410.369Z" fill="black"/>
<path fill-rule="evenodd" clip-rule="evenodd" d="M188.414 459.114C190.916 460.171 193.52 460.824 196.176 461.057C200.752 461.457 205.393 460.599 209.833 458.531C214.274 456.462 218.428 453.225 222.058 449.004C225.688 444.782 228.722 439.659 230.989 433.927C231.049 433.774 231.108 433.622 231.167 433.469C226.668 431.671 221.465 430.42 215.87 429.931C197.587 428.331 182.029 435.462 181.12 445.857C180.699 450.665 183.487 455.33 188.414 459.114Z" fill="#FFAFA4"/>
<circle cx="163.5" cy="507.5" r="17.5" fill="black" fill-opacity="0.04"/>
<circle cx="253.5" cy="469.5" r="17.5" fill="black" fill-opacity="0.04"/>
<circle cx="212.5" cy="492.5" r="17.5" fill="black" fill-opacity="0.04"/>
<circle cx="243.5" cy="525.5" r="17.5" fill="black" fill-opacity="0.04"/>
<circle cx="128.5" cy="472.5" r="17.5" fill="black" fill-opacity="0.04"/>
</g>
<defs>
<filter id="filter0_d" x="0" y="-53" width="413.906" height="630.508" filterUnits="userSpaceOnUse" color-interpolation-filters="sRGB">
<feFlood flood-opacity="0" result="BackgroundImageFix"/>
<feColorMatrix in="SourceAlpha" type="matrix" values="0 0 0 0 0 0 0 0 0 0 0 0 0 0 0 0 0 0 127 0"/>
<feOffset dy="4"/>
<feGaussianBlur stdDeviation="5"/>
<feColorMatrix type="matrix" values="0 0 0 0 0 0 0 0 0 0 0 0 0 0 0 0 0 0 0.41 0"/>
<feBlend mode="normal" in2="BackgroundImageFix" result="effect1_dropShadow"/>
<feBlend mode="normal" in="SourceGraphic" in2="effect1_dropShadow" result="shape"/>
</filter>
</defs>
</svg>
